Coordinates
version=1
nRows=19
nColumns=33
inDegrees=yes

Units are S.I. units (second, meters, Newtons, ...)
Angles are in degrees.

endheader
time	ground_thorax_rot_x	ground_thorax_rot_y	ground_thorax_rot_z	ground_thorax_tx	ground_thorax_ty	ground_thorax_tz	clav_prot_r	clav_elev_r	scapula_abduction_r	scapula_elevation_r	scapula_upward_rot_r	scapula_winging_r	shoulder_elv_r	plane_of_elev_r	axial_rot_r	elbow_flexion_r	pro_sup_r	wrist_flex_r	wrist_dev_r	clav_prot_l	clav_elev_l	scapula_abduction_l	scapula_elevation_l	scapula_upward_rot_l	scapula_winging_l	shoulder_elv_l	plane_of_elev_l	axial_rot_l	elbow_flexion_l	pro_sup_l	wrist_flex_l	wrist_dev_l	
5.9000	26.182303	37.685489	49.377527	74.919168	770.916573	-47.148802	13.190137	36.348588	28.172528	45.000000	-45.000000	1000.125130	-2090.762444	20.560175	-161.345234	1801.453598	-197.057428	10.713857	12.700018	-14.796061	-45.000000	-32.340541	45.000000	-45.000000	-5661.885132	-1368.088114	23.281263	23.338099	1429.097678	43.626787	12.138749	-14.065198	
5.9100	26.410842	37.760993	48.970114	73.948117	770.548522	-47.174678	13.136134	36.393502	28.185992	45.000000	-45.000000	1000.093393	-2090.706404	20.545205	-161.230124	1801.443044	-196.994049	10.770372	12.698716	-14.804447	-45.000000	-32.352682	45.000000	-45.000000	-5661.820625	-1368.061030	23.235217	23.108940	1429.115442	43.596123	12.154244	-14.080855	
5.9200	26.647227	37.822417	48.554787	72.943172	770.182205	-47.203537	13.068152	36.420962	28.207268	45.000000	-45.000000	1000.076979	-2090.649020	20.528631	-161.139953	1801.446308	-196.920331	10.832311	12.698383	-14.822346	-45.000000	-32.347978	45.000000	-45.000000	-5661.748982	-1368.029044	23.192996	22.837543	1429.136379	43.578859	12.175771	-14.102426	
5.9300	26.849924	37.908737	48.170725	71.862231	769.819773	-47.238430	13.031894	36.446615	28.202584	45.000000	-45.000000	1000.030604	-2090.597740	20.520193	-161.004006	1801.439358	-196.804156	10.881587	12.698741	-14.804315	-45.000000	-32.372575	45.000000	-45.000000	-5661.667617	-1367.989164	23.151320	22.586102	1429.153445	43.590211	12.183372	-14.118386	
5.9400	27.031309	38.005757	47.810582	70.701747	769.461146	-47.279612	13.015658	36.458541	28.186796	45.000000	-45.000000	999.968272	-2090.551904	20.515437	-160.855929	1801.431321	-196.645443	10.925017	12.699755	-14.768562	-45.000000	-32.403815	45.000000	-45.000000	-5661.572742	-1367.938179	23.111209	22.332070	1429.168630	43.631372	12.183920	-14.133460	
5.9500	27.200822	38.106431	47.458106	69.452204	769.106638	-47.327389	13.006414	36.466791	28.161588	45.000000	-45.000000	999.896063	-2090.507402	20.511614	-160.686443	1801.418706	-196.433556	10.966413	12.701889	-14.714761	-45.000000	-32.446731	45.000000	-45.000000	-5661.469605	-1367.880349	23.073095	22.075306	1429.187202	43.704933	12.179465	-14.151978	
5.9600	27.359249	38.208991	47.120267	68.114116	768.756159	-47.380901	13.009085	36.462726	28.132705	45.000000	-45.000000	999.814292	-2090.465032	20.507883	-160.512172	1801.404916	-196.166225	11.006719	12.704987	-14.652466	-45.000000	-32.491205	45.000000	-45.000000	-5661.355643	-1367.812625	23.034722	21.815284	1429.206653	43.810382	12.169687	-14.172839	
5.9700	27.519517	38.304299	46.778081	66.692215	768.409671	-47.438539	13.005266	36.458744	28.105383	45.000000	-45.000000	999.732422	-2090.420365	20.498587	-160.328530	1801.389299	-195.840628	11.051601	12.708946	-14.584067	-45.000000	-32.539626	45.000000	-45.000000	-5661.238503	-1367.741879	22.995689	21.548623	1429.232512	43.944464	12.159593	-14.201362	
5.9800	27.672481	38.398204	46.447564	65.190702	768.067486	-47.498393	13.008587	36.445800	28.075907	45.000000	-45.000000	999.642990	-2090.376661	20.487301	-160.141978	1801.372273	-195.458703	11.098707	12.713828	-14.511806	-45.000000	-32.587963	45.000000	-45.000000	-5661.115656	-1367.663533	22.955182	21.281675	1429.259422	44.104375	12.144663	-14.232287	
5.9900	27.821471	38.488504	46.122003	63.613528	767.730272	-47.558548	13.009436	36.431810	28.045520	45.000000	-45.000000	999.547161	-2090.331834	20.470218	-159.943382	1801.352658	-195.023488	11.151587	12.719372	-14.432138	-45.000000	-32.638919	45.000000	-45.000000	-5660.991429	-1367.582154	22.913224	21.010947	1429.290239	44.285580	12.128382	-14.268035	
6.0000	27.956136	38.580419	45.820591	61.964718	767.399031	-47.617310	13.021101	36.401471	28.009612	45.000000	-45.000000	999.444927	-2090.289739	20.450478	-159.746158	1801.342412	-194.544158	11.205418	12.725236	-14.347670	-45.000000	-32.686382	45.000000	-45.000000	-5660.860973	-1367.489498	22.869210	20.734856	1429.316497	44.484080	12.107808	-14.302061	
6.0100	28.081256	38.670831	45.535810	60.248499	767.075185	-47.673395	13.035519	36.364293	27.969102	45.000000	-45.000000	999.338051	-2090.249818	20.425699	-159.544142	1801.338875	-194.030400	11.262226	12.731621	-14.256614	-45.000000	-32.731639	45.000000	-45.000000	-5660.727186	-1367.389412	22.823627	20.451802	1429.340363	44.692878	12.087079	-14.336522	
6.0200	28.200082	38.756936	45.264431	58.469392	766.760664	-47.725965	13.053591	36.317831	27.920933	45.000000	-45.000000	999.229680	-2090.211990	20.400818	-159.342767	1801.341868	-193.498773	11.319221	12.740887	-14.165483	-45.000000	-32.772282	45.000000	-45.000000	-5660.589880	-1367.281711	22.778200	20.160784	1429.360502	44.904116	12.063466	-14.368422	
6.0300	28.319549	38.837196	44.994759	56.631979	766.457956	-47.774546	13.071017	36.270196	27.865127	45.000000	-45.000000	999.120587	-2090.172342	20.375464	-159.135792	1801.346368	-192.966456	11.375876	12.755772	-14.073763	-45.000000	-32.811827	45.000000	-45.000000	-5660.453249	-1367.174899	22.733366	19.859389	1429.382285	45.109077	12.038907	-14.400074	
6.0400	28.443592	38.906084	44.721711	54.740833	766.170063	-47.818819	13.085399	36.222022	27.799965	45.000000	-45.000000	999.017551	-2090.129457	20.352986	-158.923780	1801.352877	-192.451780	11.428912	12.778425	-13.984737	-45.000000	-32.854448	45.000000	-45.000000	-5660.317854	-1367.070680	22.688289	19.546150	1429.403990	45.301342	12.012017	-14.429607	
6.0500	28.575780	38.962092	44.440444	52.800052	765.900333	-47.858428	13.094301	36.178607	27.728810	45.000000	-45.000000	998.917366	-2090.083697	20.332607	-158.702617	1801.355590	-191.971324	11.478856	12.809525	-13.899381	-45.000000	-32.899031	45.000000	-45.000000	-5660.185296	-1366.972653	22.643938	19.222869	1429.427314	45.475776	11.984999	-14.458425	
6.0600	28.718885	39.000441	44.146648	50.813227	765.652211	-47.892852	13.091572	36.145246	27.654967	45.000000	-45.000000	998.821908	-2090.035055	20.312420	-158.467140	1801.349916	-191.537843	11.526203	12.848764	-13.818759	-45.000000	-32.948978	45.000000	-45.000000	-5660.055766	-1366.882146	22.600188	18.894530	1429.453268	45.629459	11.957906	-14.487105	
6.0700	28.868026	39.026591	43.849080	48.783280	765.429044	-47.921435	13.083933	36.116093	27.579075	45.000000	-45.000000	998.725876	-2089.984954	20.291682	-158.218548	1801.340078	-191.159761	11.569671	12.893921	-13.741944	-45.000000	-32.998948	45.000000	-45.000000	-5659.928308	-1366.796551	22.558298	18.566223	1429.479508	45.762548	11.931276	-14.514355	
6.0800	29.017564	39.039722	43.557245	46.712841	765.233968	-47.943485	13.071990	36.089220	27.502036	45.000000	-45.000000	998.629667	-2089.935254	20.267146	-157.961261	1801.325091	-190.839195	11.610967	12.941994	-13.665528	-45.000000	-33.049089	45.000000	-45.000000	-5659.798463	-1366.711669	22.517240	18.242727	1429.504736	45.876784	11.906613	-14.540582	
